%
M48
M72
T01C0.0236
T02C0.0240
T03C0.0394
T04C0.0400
%
T01
X22338Y18775
X22838Y18775
X22838Y19275
X22338Y19275
X22338Y19775
X22838Y19775
X22838Y20275
X22338Y20275
X22338Y20775
X22838Y20775
T02
X14050Y10663
X16863Y12250
X16875Y13788
X15738Y13688
X16075Y15625
X16088Y15638
X15688Y16713
X14688Y17700
X15488Y18100
X14750Y18675
X15450Y19100
X14200Y16838
X12463Y16238
X10475Y16175
X9300Y14725
X9588Y13463
X8450Y18238
X10638Y19213
X12025Y19585
X12038Y19575
X12700Y18663
X11628Y21048
X11613Y21050
X19238Y20938
X19250Y21988
X20390Y20525
X20400Y20525
X21300Y20738
X20800Y19488
X20925Y18863
X20800Y18275
X20788Y17175
X21150Y15038
X19825Y14325
X18300Y14375
T03
X13975Y23350
X12975Y23350
X11975Y23350
X10975Y23350
T04
X9538Y20200
X9538Y19200
X9538Y18200
X9538Y17200
M30
